<svg xmlns="http://www.w3.org/2000/svg" xmlns:xlink="http://www.w3.org/1999/xlink" width="4868" zoomAndPan="magnify" viewBox="0 0 3650.88 1542.749949" height="2057" preserveAspectRatio="xMidYMid meet" version="1.0"><defs><clipPath id="5a34b80c0e"><path d="M 1100.617188 1041.234375 L 1278.640625 1041.234375 L 1278.640625 1259.59375 L 1100.617188 1259.59375 Z M 1100.617188 1041.234375 " clip-rule="nonzero"/></clipPath><clipPath id="540d208fb5"><path d="M 1136.859375 1128.695312 L 1245.671875 1128.695312 L 1245.671875 1124.617188 C 1245.671875 1115.011719 1243.410156 1105.671875 1238.902344 1096.621094 C 1234.394531 1087.554688 1228.152344 1080.824219 1220.222656 1076.441406 C 1212.289062 1072.0625 1203.023438 1069.890625 1192.4375 1069.890625 C 1179.925781 1069.890625 1168.378906 1075.027344 1157.792969 1085.320312 C 1147.199219 1095.632812 1140.230469 1110.070312 1136.859375 1128.695312 M 1242.890625 1200.429688 L 1277.34375 1200.429688 L 1277.34375 1202.273438 C 1277.34375 1211.40625 1273.757812 1220.726562 1266.597656 1230.222656 C 1259.425781 1239.699219 1249.941406 1246.929688 1238.167969 1251.847656 C 1226.390625 1256.78125 1212.84375 1259.25 1197.542969 1259.25 C 1166.578125 1259.25 1142.675781 1249.054688 1125.847656 1228.730469 C 1109.019531 1208.40625 1100.617188 1182.710938 1100.617188 1151.636719 C 1100.617188 1119.820312 1109.511719 1093.460938 1127.300781 1072.574219 C 1145.101562 1051.675781 1168.03125 1041.234375 1196.089844 1041.234375 C 1211.507812 1041.234375 1225.484375 1044.625 1237.992188 1051.382812 C 1250.523438 1058.164062 1260.410156 1068.746094 1267.703125 1083.09375 C 1274.984375 1097.46875 1278.636719 1117.476562 1278.636719 1143.113281 L 1278.636719 1154.589844 L 1134.707031 1154.589844 C 1134.707031 1176.640625 1140.492188 1194.839844 1152.105469 1209.140625 C 1163.71875 1223.445312 1179.789062 1230.59375 1200.332031 1230.59375 C 1215.117188 1230.59375 1225.902344 1227.667969 1232.695312 1221.808594 C 1239.464844 1215.949219 1242.890625 1209.449219 1242.890625 1202.28125 Z M 1242.890625 1200.429688 " clip-rule="nonzero"/></clipPath><clipPath id="b515cffcaf"><path d="M 1321.394531 1041.140625 L 1533.96875 1041.140625 L 1533.96875 1321.984375 L 1321.394531 1321.984375 Z M 1321.394531 1041.140625 " clip-rule="nonzero"/></clipPath><clipPath id="5d42ed2443"><path d="M 1531.171875 1321.335938 C 1531.171875 1321.335938 1535.96875 1293.332031 1439.042969 1231.875 C 1428.722656 1225.335938 1377.949219 1190.535156 1360.160156 1176.214844 C 1344.011719 1163.195312 1319.308594 1136.328125 1321.789062 1111.453125 C 1323.632812 1092.925781 1331.121094 1076.546875 1349.78125 1062.445312 C 1368.425781 1048.398438 1396.183594 1041.363281 1432.972656 1041.363281 C 1469.242188 1041.363281 1495.058594 1047.378906 1510.410156 1059.390625 C 1525.757812 1071.429688 1533.417969 1084.769531 1533.417969 1099.421875 L 1533.417969 1100.257812 L 1484.273438 1100.257812 L 1484.273438 1099.421875 C 1484.273438 1091.546875 1479.367188 1085.347656 1469.5625 1080.832031 C 1459.738281 1076.316406 1446.675781 1074.082031 1430.339844 1074.082031 C 1410.902344 1074.082031 1395.992188 1077.363281 1385.671875 1083.886719 C 1375.332031 1090.457031 1370.171875 1098.488281 1370.171875 1108.0625 C 1370.171875 1115.386719 1371.789062 1124.226562 1375.160156 1130.769531 C 1391.523438 1162.535156 1415.527344 1179.597656 1425.132812 1186.648438 C 1435.625 1194.351562 1479.683594 1222.355469 1505.542969 1244.453125 C 1545.71875 1278.769531 1531.183594 1321.328125 1531.183594 1321.328125 " clip-rule="nonzero"/></clipPath><clipPath id="88dbcf8c42"><path d="M 1321.394531 1099.039062 L 1533.96875 1099.039062 L 1533.96875 1379 L 1321.394531 1379 Z M 1321.394531 1099.039062 " clip-rule="nonzero"/></clipPath><clipPath id="0d3b8bb3da"><path d="M 1324.015625 1099.078125 C 1324.015625 1099.078125 1319.398438 1126.425781 1416.320312 1187.902344 C 1426.632812 1194.441406 1477.410156 1229.242188 1495.203125 1243.5625 C 1511.355469 1256.570312 1536.0625 1283.4375 1533.570312 1308.316406 C 1531.726562 1326.84375 1524.25 1343.222656 1505.578125 1357.324219 C 1486.933594 1371.382812 1459.175781 1378.414062 1422.386719 1378.414062 C 1386.117188 1378.414062 1360.304688 1372.390625 1344.949219 1360.386719 C 1329.59375 1348.347656 1321.945312 1335.011719 1321.945312 1320.355469 L 1321.945312 1319.519531 L 1371.089844 1319.519531 L 1371.089844 1320.355469 C 1371.089844 1328.242188 1376.003906 1334.429688 1385.800781 1338.945312 C 1395.621094 1343.460938 1408.6875 1345.6875 1425.023438 1345.6875 C 1444.464844 1345.6875 1459.367188 1342.414062 1469.679688 1335.890625 C 1480.027344 1329.324219 1485.179688 1321.289062 1485.179688 1311.707031 C 1485.179688 1304.382812 1483.570312 1295.550781 1480.191406 1289.007812 C 1463.828125 1257.253906 1439.824219 1240.179688 1430.230469 1233.128906 C 1419.726562 1225.417969 1385.152344 1198.8125 1357.769531 1178.652344 C 1338.644531 1164.570312 1329.367188 1147.660156 1324.179688 1131.75 C 1318.628906 1114.742188 1323.996094 1099.097656 1323.996094 1099.097656 " clip-rule="nonzero"/></clipPath><clipPath id="0e0afc57e6"><path d="M 1634.617188 1272.957031 L 1718.722656 1272.957031 L 1718.722656 1381.277344 L 1634.617188 1381.277344 Z M 1634.617188 1272.957031 " clip-rule="nonzero"/></clipPath><clipPath id="055431b3d3"><path d="M 1718.226562 1376.179688 C 1712.992188 1378.671875 1702.515625 1381.160156 1689.105469 1381.160156 C 1658.015625 1381.167969 1634.617188 1362.480469 1634.617188 1328.070312 C 1634.617188 1295.21875 1658.015625 1272.957031 1692.214844 1272.957031 C 1705.960938 1272.957031 1714.628906 1275.753906 1718.398438 1277.625 L 1714.957031 1288.675781 C 1709.550781 1286.183594 1701.863281 1284.324219 1692.703125 1284.324219 C 1666.855469 1284.324219 1649.675781 1300.050781 1649.675781 1327.609375 C 1649.675781 1353.304688 1665.21875 1369.804688 1692.050781 1369.804688 C 1700.71875 1369.804688 1709.558594 1368.09375 1715.28125 1365.441406 Z M 1718.226562 1376.179688 " clip-rule="nonzero"/></clipPath><clipPath id="bb4b94a419"><path d="M 1574.597656 1040.597656 L 1862.375 1040.597656 L 1862.375 1253 L 1574.597656 1253 Z M 1574.597656 1040.597656 " clip-rule="nonzero"/></clipPath><clipPath id="b376aa3b1d"><path d="M 1609.082031 1252.90625 L 1574.625 1252.90625 L 1574.597656 1041.035156 L 1609.054688 1041.035156 L 1609.082031 1083.699219 C 1616.113281 1071.234375 1622.808594 1062.304688 1629.167969 1056.898438 C 1635.527344 1051.472656 1642.488281 1047.394531 1650.019531 1044.6875 C 1657.535156 1041.980469 1665.574219 1040.597656 1674.097656 1040.597656 C 1682.621094 1040.597656 1690.761719 1041.933594 1698.558594 1044.585938 C 1706.316406 1047.222656 1713.066406 1051.210938 1718.726562 1056.507812 C 1724.425781 1061.8125 1730.03125 1070.871094 1735.59375 1083.699219 C 1742.632812 1071.742188 1749.585938 1062.957031 1756.433594 1057.34375 C 1763.292969 1051.746094 1770.328125 1047.539062 1777.558594 1044.769531 C 1784.78125 1042.015625 1792.480469 1040.597656 1800.636719 1040.597656 C 1812.359375 1040.597656 1822.980469 1043.367188 1832.472656 1048.828125 C 1841.988281 1054.308594 1849.300781 1062.121094 1854.433594 1072.226562 C 1859.558594 1082.339844 1862.121094 1099.527344 1862.121094 1123.832031 L 1862.121094 1252.90625 L 1827.667969 1252.90625 L 1827.667969 1138.050781 C 1827.667969 1113.765625 1826.207031 1098.421875 1823.296875 1092.023438 C 1820.398438 1085.617188 1816.375 1080.703125 1811.242188 1077.3125 C 1806.097656 1073.925781 1799.882812 1072.226562 1792.578125 1072.226562 C 1782.3125 1072.226562 1772.835938 1075.394531 1764.195312 1081.757812 C 1755.527344 1088.089844 1748.601562 1096.640625 1743.386719 1107.359375 C 1738.191406 1118.101562 1735.59375 1133.136719 1735.59375 1152.5 L 1735.59375 1252.90625 L 1701.148438 1252.90625 L 1701.148438 1138.171875 C 1701.148438 1113.921875 1699.820312 1098.601562 1697.148438 1092.1875 C 1694.515625 1085.789062 1690.296875 1080.847656 1684.476562 1077.40625 C 1678.660156 1073.96875 1672.4375 1072.234375 1665.765625 1072.234375 C 1656.382812 1072.234375 1647.148438 1075.503906 1638.082031 1082.027344 C 1628.996094 1088.5625 1621.910156 1097.285156 1616.777344 1108.1875 C 1611.640625 1119.089844 1609.089844 1133.863281 1609.089844 1152.488281 Z M 1609.082031 1252.90625 " clip-rule="nonzero"/></clipPath><clipPath id="b50375c4a2"><path d="M 1879.871094 1274.667969 L 1894.269531 1274.667969 L 1894.269531 1318.570312 L 1879.871094 1318.570312 Z M 1812.296875 1274.667969 L 1826.535156 1274.667969 L 1826.535156 1318.570312 L 1812.296875 1318.570312 Z M 1812.296875 1318.570312 L 1894.269531 1318.570312 L 1894.269531 1330.410156 L 1812.296875 1330.410156 Z M 1812.296875 1330.410156 L 1826.535156 1330.410156 L 1826.535156 1379.609375 L 1812.296875 1379.609375 Z M 1879.871094 1330.410156 L 1894.269531 1330.410156 L 1894.269531 1379.609375 L 1879.871094 1379.609375 Z M 1879.871094 1330.410156 " clip-rule="nonzero"/></clipPath><clipPath id="7362fd1047"><path d="M 1903.785156 1040.617188 L 2082 1040.617188 L 2082 1258.996094 L 1903.785156 1258.996094 Z M 1903.785156 1040.617188 " clip-rule="nonzero"/></clipPath><clipPath id="eeea24a7d9"><path d="M 1940.066406 1128.078125 L 2048.859375 1128.078125 L 2048.859375 1124.007812 C 2048.859375 1114.394531 2046.582031 1105.054688 2042.074219 1096.003906 C 2037.59375 1086.9375 2031.351562 1080.207031 2023.402344 1075.824219 C 2015.46875 1071.445312 2006.183594 1069.273438 1995.625 1069.273438 C 1983.097656 1069.273438 1971.578125 1074.417969 1960.984375 1084.703125 C 1950.398438 1095.015625 1943.417969 1109.453125 1940.066406 1128.078125 M 2046.089844 1199.820312 L 2080.535156 1199.820312 L 2080.535156 1201.664062 C 2080.535156 1210.796875 2076.964844 1220.109375 2069.792969 1229.613281 C 2062.636719 1239.089844 2053.140625 1246.320312 2041.363281 1251.238281 C 2029.589844 1256.171875 2016.035156 1258.640625 2000.722656 1258.640625 C 1969.785156 1258.640625 1945.871094 1248.449219 1929.046875 1228.121094 C 1912.21875 1207.769531 1903.785156 1182.085938 1903.785156 1151.019531 C 1903.785156 1119.203125 1912.699219 1092.835938 1930.507812 1071.957031 C 1948.289062 1051.058594 1971.214844 1040.617188 1999.296875 1040.617188 C 2014.714844 1040.617188 2028.699219 1044.007812 2041.203125 1050.765625 C 2053.703125 1057.554688 2063.605469 1068.128906 2070.914062 1082.476562 C 2078.199219 1096.859375 2081.832031 1116.859375 2081.832031 1142.496094 L 2081.832031 1153.972656 L 1937.894531 1153.972656 C 1937.894531 1176.023438 1943.691406 1194.222656 1955.277344 1208.535156 C 1966.898438 1222.824219 1982.953125 1229.984375 2003.53125 1229.984375 C 2018.304688 1229.984375 2029.082031 1227.058594 2035.878906 1221.191406 C 2042.664062 1215.332031 2046.089844 1208.84375 2046.089844 1201.675781 Z M 2046.089844 1199.820312 " clip-rule="nonzero"/></clipPath><clipPath id="8d4863f59a"><path d="M 1988.671875 1272.957031 L 2089.855469 1272.957031 L 2089.855469 1381.617188 L 1988.671875 1381.617188 Z M 1988.671875 1272.957031 " clip-rule="nonzero"/></clipPath><clipPath id="2f60eb1306"><path d="M 2003.882812 1327.761719 C 2003.882812 1350.175781 2016.648438 1370.265625 2039.0625 1370.265625 C 2061.640625 1370.265625 2074.40625 1350.496094 2074.40625 1326.671875 C 2074.40625 1305.8125 2062.957031 1284.015625 2039.226562 1284.015625 C 2015.664062 1284.015625 2003.882812 1304.71875 2003.882812 1327.761719 M 2089.460938 1326.046875 C 2089.460938 1362.171875 2066.382812 1381.3125 2038.242188 1381.3125 C 2009.113281 1381.3125 1988.671875 1359.835938 1988.671875 1328.070312 C 1988.671875 1294.753906 2010.433594 1272.957031 2039.886719 1272.957031 C 2069.988281 1272.957031 2089.460938 1294.90625 2089.460938 1326.046875 " clip-rule="nonzero"/></clipPath><clipPath id="19e0abeb71"><path d="M 1820.3125 167 L 2141 167 L 2141 924 L 1820.3125 924 Z M 1820.3125 167 " clip-rule="nonzero"/></clipPath><clipPath id="5b9583b729"><path d="M 2081.605469 430.867188 C 2081.605469 430.867188 1959.882812 506.808594 1922.511719 573.363281 C 1880.496094 648.21875 1914.941406 729.9375 1914.941406 729.9375 C 1914.941406 729.9375 1948.152344 710.242188 1982.214844 664.640625 C 2015.613281 619.9375 2018.847656 596.449219 2018.847656 596.449219 C 2018.847656 596.449219 2011.96875 639.398438 1994.652344 672.933594 C 1980.179688 701.035156 1947.050781 747.257812 1947.050781 747.257812 C 1947.050781 747.257812 2050.03125 741.914062 2079.804688 627.488281 C 2107.597656 520.710938 2081.605469 430.867188 2081.605469 430.867188 M 1893.363281 923.433594 C 1893.371094 923.277344 1898.332031 838.75 1878.761719 714.15625 C 1865.996094 633.082031 1840.039062 494.578125 1830.542969 409.644531 C 1812.652344 249.460938 1824.957031 167.304688 1825.011719 167.097656 C 2005.335938 204.457031 2140.890625 364.222656 2140.890625 555.625 C 2140.890625 721.988281 2038.519531 864.4375 1893.363281 923.433594 " clip-rule="nonzero"/></clipPath><clipPath id="825dfae86b"><path d="M 1347.207031 328.625 L 1814.863281 328.625 L 1814.863281 953 L 1347.207031 953 Z M 1347.207031 328.625 " clip-rule="nonzero"/></clipPath><clipPath id="67667b11dd"><path d="M 1399.292969 704.707031 C 1399.292969 704.707031 1504.523438 823.949219 1584.097656 852.671875 C 1673.601562 884.980469 1756.648438 832.390625 1756.648438 832.390625 C 1756.648438 832.390625 1729.054688 799.691406 1672.984375 770.753906 C 1618.023438 742.367188 1591.757812 743.148438 1591.757812 743.148438 C 1591.757812 743.148438 1639.949219 742.804688 1679.789062 755.625 C 1713.164062 766.363281 1769.742188 794.148438 1769.742188 794.148438 C 1769.742188 794.148438 1745.101562 682.527344 1614.589844 670.835938 C 1492.757812 659.933594 1399.292969 704.714844 1399.292969 704.714844 M 1347.210938 555.644531 C 1347.210938 471.335938 1373.496094 393.1875 1418.328125 328.914062 C 1418.433594 329.105469 1456.433594 400.886719 1542.621094 502.648438 C 1618.816406 592.632812 1752.585938 669.117188 1797.714844 787.789062 C 1827.472656 866.082031 1808.636719 947.0625 1808.582031 947.238281 C 1787.578125 950.699219 1766.007812 952.46875 1744.027344 952.46875 C 1524.867188 952.460938 1347.210938 774.785156 1347.210938 555.644531 " clip-rule="nonzero"/></clipPath><clipPath id="60e6f34f6b"><path d="M 1441 158.816406 L 1791 158.816406 L 1791 515.6875 L 1441 515.6875 Z M 1441 158.816406 " clip-rule="nonzero"/></clipPath><clipPath id="6065a9b068"><path d="M 1441.214844 300.796875 C 1441.332031 300.96875 1486.425781 360.40625 1551.535156 423.15625 C 1632.796875 501.527344 1693.9375 515.402344 1693.9375 515.402344 C 1693.9375 515.402344 1647.046875 478.214844 1634.160156 428.425781 C 1619.996094 373.761719 1634.796875 338.082031 1660.164062 328.914062 C 1686.152344 319.519531 1720.160156 342.863281 1740.957031 375.84375 C 1771.75 424.617188 1765.132812 478.132812 1765.132812 478.132812 C 1765.132812 478.132812 1788.695312 444.441406 1783.824219 356.808594 C 1778.507812 261.28125 1790.984375 161.398438 1790.984375 161.398438 C 1776.019531 159.691406 1760.820312 158.820312 1745.371094 158.820312 C 1623.257812 158.820312 1514 214.007812 1441.214844 300.796875 " clip-rule="nonzero"/></clipPath><clipPath id="fff3c16258"><path d="M 2132.1875 1040.136719 L 2250.597656 1040.136719 L 2250.597656 1253 L 2132.1875 1253 Z M 2132.1875 1040.136719 " clip-rule="nonzero"/></clipPath><clipPath id="365302dd79"><path d="M 2166.679688 1252.90625 L 2132.214844 1252.90625 L 2132.1875 1041.035156 L 2166.652344 1041.035156 L 2166.679688 1082.765625 C 2172.503906 1072.28125 2178.851562 1064.15625 2185.742188 1058.371094 C 2192.628906 1052.582031 2199.988281 1048.15625 2207.765625 1045.148438 C 2215.570312 1042.125 2223.519531 1040.597656 2231.578125 1040.597656 C 2238.9375 1040.597656 2245.261719 1041.660156 2250.59375 1043.757812 L 2250.59375 1079.457031 C 2242.226562 1075.496094 2233.359375 1073.523438 2224.011719 1073.523438 C 2210.699219 1073.523438 2197.84375 1079.195312 2185.359375 1090.535156 C 2172.902344 1101.882812 2166.679688 1121.96875 2166.679688 1150.808594 Z M 2166.679688 1252.90625 " clip-rule="nonzero"/></clipPath><clipPath id="8047206b31"><path d="M 2177.636719 1272.957031 L 2278.820312 1272.957031 L 2278.820312 1381.621094 L 2177.636719 1381.621094 Z M 2177.636719 1272.957031 " clip-rule="nonzero"/></clipPath><clipPath id="940269a581"><path d="M 2192.855469 1327.761719 C 2192.855469 1350.175781 2205.621094 1370.265625 2228.035156 1370.265625 C 2250.613281 1370.265625 2263.378906 1350.496094 2263.378906 1326.671875 C 2263.378906 1305.8125 2251.921875 1284.015625 2228.199219 1284.015625 C 2204.640625 1284.015625 2192.863281 1304.71875 2192.863281 1327.761719 M 2278.433594 1326.046875 C 2278.433594 1362.171875 2255.355469 1381.3125 2227.226562 1381.3125 C 2198.089844 1381.3125 2177.636719 1359.835938 2177.636719 1328.070312 C 2177.636719 1294.753906 2199.398438 1272.957031 2228.84375 1272.957031 C 2258.953125 1272.957031 2278.425781 1294.90625 2278.425781 1326.046875 " clip-rule="nonzero"/></clipPath><clipPath id="456355e860"><path d="M 2271.703125 1040.617188 L 2439.363281 1040.617188 L 2439.363281 1258.707031 L 2271.703125 1258.707031 Z M 2271.703125 1040.617188 " clip-rule="nonzero"/></clipPath><clipPath id="5c22ac88a0"><path d="M 2397.664062 1148.792969 L 2387.695312 1151.375 C 2353.996094 1159.859375 2332.453125 1167.910156 2323.050781 1175.542969 C 2313.617188 1183.15625 2308.949219 1192.269531 2308.949219 1202.84375 C 2308.949219 1208.269531 2310.328125 1213.3125 2313.144531 1218 C 2315.945312 1222.644531 2320.058594 1226.296875 2325.539062 1228.875 C 2331.015625 1231.457031 2336.441406 1232.730469 2341.8125 1232.730469 C 2351.078125 1232.730469 2360.230469 1229.964844 2369.207031 1224.359375 C 2378.183594 1218.753906 2385.167969 1211.277344 2390.167969 1201.9375 C 2395.171875 1192.570312 2397.671875 1181.683594 2397.671875 1169.265625 Z M 2403.03125 1252.910156 C 2399.496094 1241.796875 2397.664062 1232.246094 2397.664062 1224.242188 C 2382.988281 1239.171875 2370.441406 1248.621094 2360.054688 1252.617188 C 2349.625 1256.632812 2339.667969 1258.652344 2330.171875 1258.652344 C 2314.179688 1258.652344 2300.453125 1253.636719 2288.941406 1243.585938 C 2277.445312 1233.539062 2271.703125 1219.71875 2271.703125 1202.117188 C 2271.703125 1182.175781 2279.800781 1166.773438 2295.972656 1155.960938 C 2312.15625 1145.121094 2340.039062 1135.773438 2379.617188 1127.878906 L 2397.652344 1124.371094 L 2397.652344 1101.074219 C 2397.652344 1088.382812 2393.574219 1079.488281 2385.371094 1074.351562 C 2377.15625 1069.238281 2367.277344 1066.675781 2355.785156 1066.675781 C 2341.976562 1066.675781 2331.226562 1069.820312 2323.484375 1076.117188 C 2315.761719 1082.394531 2311.917969 1089.71875 2311.917969 1098.121094 L 2311.917969 1101.082031 L 2274.496094 1101.082031 L 2274.496094 1098.304688 C 2274.496094 1089.179688 2278.265625 1079.742188 2285.816406 1070.011719 C 2293.355469 1060.261719 2303.414062 1052.9375 2315.933594 1047.996094 C 2328.445312 1043.078125 2342.15625 1040.617188 2357.03125 1040.617188 C 2371.777344 1040.617188 2385.195312 1042.933594 2397.289062 1047.632812 C 2409.402344 1052.320312 2418.207031 1058.625 2423.773438 1066.566406 C 2429.335938 1074.515625 2432.132812 1089.453125 2432.132812 1111.378906 L 2432.132812 1191.570312 C 2432.132812 1200.308594 2432.335938 1209.515625 2432.769531 1219.191406 C 2433.207031 1228.867188 2435.386719 1240.105469 2439.347656 1252.917969 Z M 2403.03125 1252.910156 " clip-rule="nonzero"/></clipPath><clipPath id="ffd80a9258"><path d="M 2373.152344 1274.667969 L 2387.378906 1274.667969 L 2387.378906 1368.242188 L 2373.152344 1368.242188 Z M 2373.152344 1368.242188 L 2434.507812 1368.242188 L 2434.507812 1379.609375 L 2373.152344 1379.609375 Z M 2373.152344 1368.242188 " clip-rule="nonzero"/></clipPath></defs><g clip-path="url(#5a34b80c0e)"><g clip-path="url(#540d208fb5)"><path fill="#006db1" d="M 1100.617188 1041.234375 L 1278.640625 1041.234375 L 1278.640625 1259.59375 L 1100.617188 1259.59375 Z M 1100.617188 1041.234375 " fill-opacity="1" fill-rule="nonzero"/></g></g><g clip-path="url(#b515cffcaf)"><g clip-path="url(#5d42ed2443)"><path fill="#006db1" d="M 1317.074219 1036.820312 L 1538.289062 1036.820312 L 1538.289062 1383.335938 L 1317.074219 1383.335938 Z M 1317.074219 1036.820312 " fill-opacity="1" fill-rule="nonzero"/></g></g><g clip-path="url(#88dbcf8c42)"><g clip-path="url(#0d3b8bb3da)"><path fill="#009a30" d="M 1317.074219 1036.820312 L 1538.289062 1036.820312 L 1538.289062 1383.335938 L 1317.074219 1383.335938 Z M 1317.074219 1036.820312 " fill-opacity="1" fill-rule="nonzero"/></g></g><g clip-path="url(#0e0afc57e6)"><g clip-path="url(#055431b3d3)"><path fill="#006db1" d="M 1634.617188 1272.957031 L 1718.394531 1272.957031 L 1718.394531 1381.277344 L 1634.617188 1381.277344 Z M 1634.617188 1272.957031 " fill-opacity="1" fill-rule="nonzero"/></g></g><g clip-path="url(#bb4b94a419)"><g clip-path="url(#b376aa3b1d)"><path fill="#006db1" d="M 1574.597656 1040.597656 L 1862.375 1040.597656 L 1862.375 1252.902344 L 1574.597656 1252.902344 Z M 1574.597656 1040.597656 " fill-opacity="1" fill-rule="nonzero"/></g></g><g clip-path="url(#b50375c4a2)"><path fill="#006db1" d="M 1812.296875 1274.667969 L 1894.273438 1274.667969 L 1894.273438 1379.695312 L 1812.296875 1379.695312 Z M 1812.296875 1274.667969 " fill-opacity="1" fill-rule="nonzero"/></g><g clip-path="url(#7362fd1047)"><g clip-path="url(#eeea24a7d9)"><path fill="#009a30" d="M 1903.785156 1040.617188 L 2081.828125 1040.617188 L 2081.828125 1258.300781 L 1903.785156 1258.300781 Z M 1903.785156 1040.617188 " fill-opacity="1" fill-rule="nonzero"/></g></g><g clip-path="url(#8d4863f59a)"><g clip-path="url(#2f60eb1306)"><path fill="#006db1" d="M 1988.671875 1272.957031 L 2089.460938 1272.957031 L 2089.460938 1381.226562 L 1988.671875 1381.226562 Z M 1988.671875 1272.957031 " fill-opacity="1" fill-rule="nonzero"/></g></g><g clip-path="url(#19e0abeb71)"><g clip-path="url(#5b9583b729)"><path fill="#006db1" d="M 1342.667969 154.277344 L 2145.398438 154.277344 L 2145.398438 957.007812 L 1342.667969 957.007812 Z M 1342.667969 154.277344 " fill-opacity="1" fill-rule="nonzero"/></g></g><g clip-path="url(#825dfae86b)"><g clip-path="url(#67667b11dd)"><path fill="#006db1" d="M 1342.667969 154.277344 L 2145.398438 154.277344 L 2145.398438 957.007812 L 1342.667969 957.007812 Z M 1342.667969 154.277344 " fill-opacity="1" fill-rule="nonzero"/></g></g><g clip-path="url(#60e6f34f6b)"><g clip-path="url(#6065a9b068)"><path fill="#009a30" d="M 1342.667969 154.277344 L 2145.398438 154.277344 L 2145.398438 957.007812 L 1342.667969 957.007812 Z M 1342.667969 154.277344 " fill-opacity="1" fill-rule="nonzero"/></g></g><g clip-path="url(#fff3c16258)"><g clip-path="url(#365302dd79)"><path fill="#009a30" d="M 2132.1875 1040.597656 L 2250.597656 1040.597656 L 2250.597656 1252.902344 L 2132.1875 1252.902344 Z M 2132.1875 1040.597656 " fill-opacity="1" fill-rule="nonzero"/></g></g><g clip-path="url(#8047206b31)"><g clip-path="url(#940269a581)"><path fill="#006db1" d="M 2177.636719 1272.957031 L 2278.425781 1272.957031 L 2278.425781 1381.226562 L 2177.636719 1381.226562 Z M 2177.636719 1272.957031 " fill-opacity="1" fill-rule="nonzero"/></g></g><g clip-path="url(#456355e860)"><g clip-path="url(#5c22ac88a0)"><path fill="#009a30" d="M 2271.703125 1040.617188 L 2439.363281 1040.617188 L 2439.363281 1258.707031 L 2271.703125 1258.707031 Z M 2271.703125 1040.617188 " fill-opacity="1" fill-rule="nonzero"/></g></g><g clip-path="url(#ffd80a9258)"><path fill="#006db1" d="M 2373.152344 1274.667969 L 2434.511719 1274.667969 L 2434.511719 1379.648438 L 2373.152344 1379.648438 Z M 2373.152344 1274.667969 " fill-opacity="1" fill-rule="nonzero"/></g></svg>